<svg xmlns="http://www.w3.org/2000/svg" width="470.824" height="120" viewBox="0 0 470.824 120">
  <g id="Group_759" data-name="Group 759" transform="translate(-4036 2476.974)">
    <g id="Group_758" data-name="Group 758" transform="translate(0 159.532)">
      <g id="Group_757" data-name="Group 757" transform="translate(4036.176 -2636.506)">
        <g id="Group_756" data-name="Group 756">
          <g id="Group_7" data-name="Group 7" transform="translate(0 0)">
            <path id="Path_9" data-name="Path 9" d="M869.212,656.34c2.642-.878,1.541-.515,2.883-1.009.074-.037,1.171-.507,2.035-.988a15.557,15.557,0,0,0,6.512-5.987A15.106,15.106,0,0,0,882.2,643.8a9.367,9.367,0,0,0-.171-3.771,8.222,8.222,0,0,0-1.123-2.915,23.546,23.546,0,0,0-2.035-2.781,28.864,28.864,0,0,0-3.557-3.161,20.607,20.607,0,0,1-2.7-2.246,15.168,15.168,0,0,1-2.417-2.835,8.9,8.9,0,0,1-.57-1.069c-.131-.268-.171.77.077,1.849a24.845,24.845,0,0,0,1.941,4.066c.266.482,2.208,3.423,2.436,3.958a8.468,8.468,0,0,1,.932,2.514,8.6,8.6,0,0,1-.1,3,8.03,8.03,0,0,1-1.732,2.434,18.739,18.739,0,0,1-2.271,1.485c-.462.145-3.647,1.216-3.647,1.216Z" transform="translate(-723.562 -605.409)" fill="#0095ff" stroke="#0095ff" stroke-width="1.5"/>
            <path id="Path_10" data-name="Path 10" d="M880.365,656.339c-2.641-.878-1.541-.515-2.882-1.009-.074-.037-1.171-.507-2.034-.988a15.556,15.556,0,0,1-6.512-5.987,15.1,15.1,0,0,1-1.556-4.554,9.362,9.362,0,0,1,.171-3.771,8.217,8.217,0,0,1,1.123-2.915,23.549,23.549,0,0,1,2.035-2.781,28.846,28.846,0,0,1,3.557-3.161,20.665,20.665,0,0,0,2.7-2.246,15.207,15.207,0,0,0,2.416-2.835,8.987,8.987,0,0,0,.57-1.069c.133-.268.171.77-.077,1.849a24.825,24.825,0,0,1-1.939,4.066c-.267.482-2.207,3.423-2.436,3.958a8.463,8.463,0,0,0-.932,2.514,8.586,8.586,0,0,0,.1,3,8.033,8.033,0,0,0,1.732,2.434,18.839,18.839,0,0,0,2.269,1.485c.462.145,3.647,1.216,3.647,1.216Z" transform="translate(-758.95 -605.409)" fill="#0095ff" stroke="#0095ff" stroke-width="1.5"/>
            <text id="TRADEDOC" transform="translate(0 97)" fill="#fff" font-size="90" font-family="SegoeUI-Bold, Segoe UI" font-weight="700"><tspan x="0" y="0">TR </tspan></text>
            <path id="Path_11" data-name="Path 11" d="M856.03,574.316" transform="translate(-657.554 -539.065)" fill="none" stroke="#707070" stroke-width="1"/>
            <g id="Group_473" data-name="Group 473" transform="translate(108.399 33.949)">
              <path id="Path_1298" data-name="Path 1298" d="M.313.594H8.188l.359,11.266H8.234l-.187,1.535-.3,1.438L7.422,16.25l-16,43.576-8.093-12.732Z" transform="translate(16.672 -0.578)" fill="#fff"/>
              <path id="Path_1299" data-name="Path 1299" d="M-14.59.578l-9.562.016.922,10.782v.483l.078.156.234,2.016.438,2.234.8,2.641L-7.622,63.625l15.484.031Z" transform="translate(48.387 -0.578)" fill="#fff"/>
            </g>
            <text id="TRADEDOC-2" data-name="TRADEDOC" transform="translate(164.648 97)" fill="#fff" font-size="90" font-family="SegoeUI-Bold, Segoe UI" font-weight="700"><tspan x="0" y="0">DE</tspan><tspan y="0" fill="#0095ff">DOC</tspan></text>
          </g>
        </g>
      </g>
      <rect id="Rectangle_1939" data-name="Rectangle 1939" width="468" height="98" transform="translate(4036 -2635.532)" fill="none"/>
    </g>
  </g>
</svg>
